<?xml version="1.0" standalone="no"?>
<!DOCTYPE svg PUBLIC "-//W3C//DTD SVG 20010904//EN"
 "http://www.w3.org/TR/2001/REC-SVG-20010904/DTD/svg10.dtd">
<svg version="1.0" xmlns="http://www.w3.org/2000/svg"
 width="500.000000pt" height="500.000000pt" viewBox="0 0 500.000000 500.000000"
 preserveAspectRatio="xMidYMid meet">

<g transform="translate(0.000000,500.000000) scale(0.100000,-0.100000)"
fill="#000000" stroke="none">
<path d="M1690 2731 c-111 -34 -170 -115 -170 -234 0 -245 337 -315 441 -92
27 57 24 138 -5 201 -46 99 -166 155 -266 125z m115 -166 c36 -35 37 -85 3
-122 -53 -57 -148 -13 -148 67 0 12 13 35 29 51 38 37 82 39 116 4z"/>
<path d="M3379 2724 c-131 -40 -195 -204 -130 -332 82 -162 330 -162 412 0 66
130 1 293 -134 333 -61 18 -88 18 -148 -1z m135 -160 c45 -45 31 -114 -27
-139 -87 -36 -158 72 -91 139 18 17 37 26 59 26 22 0 41 -9 59 -26z"/>
<path d="M965 2720 c4 -6 49 -72 101 -147 l94 -136 0 -84 0 -83 75 0 75 0 0
88 0 89 95 136 c52 75 95 139 95 142 0 3 -39 5 -88 5 l-88 0 -44 -74 c-24 -41
-47 -73 -51 -71 -3 3 -25 36 -48 75 l-42 70 -90 0 c-59 0 -88 -4 -84 -10z"/>
<path d="M2072 2562 c3 -160 4 -170 28 -205 37 -55 107 -87 192 -87 80 0 129
18 176 63 44 43 52 79 52 250 l0 147 -75 0 -75 0 0 -149 0 -150 -26 -20 c-35
-28 -69 -26 -99 4 -24 23 -25 28 -25 170 l0 145 -76 0 -76 0 4 -168z"/>
<path d="M2620 2500 l0 -230 75 0 74 0 3 121 3 121 48 -66 c27 -36 50 -66 52
-66 1 0 24 29 51 65 27 35 52 65 57 65 4 0 7 -54 7 -120 l0 -120 70 0 70 0 0
230 0 230 -74 0 -74 0 -52 -76 c-29 -42 -56 -72 -60 -67 -4 4 -28 38 -54 76
l-48 67 -74 0 -74 0 0 -230z"/>
<path d="M3751 2623 c16 -59 44 -162 62 -228 l34 -120 123 0 123 0 62 225 62
225 -75 3 c-41 2 -78 -1 -82 -5 -4 -4 -24 -78 -45 -163 -21 -85 -40 -159 -44
-165 -3 -5 -24 67 -46 160 l-41 170 -81 3 -82 3 30 -108z"/>
<path d="M4290 2500 l0 -230 200 0 200 0 0 60 0 60 -125 0 -125 0 0 25 0 25
125 0 125 0 0 60 0 60 -125 0 -125 0 0 25 0 25 125 0 125 0 0 60 0 60 -200 0
-200 0 0 -230z"/>
</g>
</svg>
